<svg width="120" height="24" viewBox="0 0 120 24" fill="none" xmlns="http://www.w3.org/2000/svg">
<path d="M11.2827 3.4533C11.5131 2.98636 11.6284 2.75289 11.7848 2.6783C11.9209 2.6134 12.0791 2.6134 12.2152 2.6783C12.3717 2.75289 12.4869 2.98636 12.7174 3.4533L14.9041 7.88327C14.9721 8.02112 15.0061 8.09004 15.0558 8.14356C15.0999 8.19094 15.1527 8.22933 15.2113 8.25661C15.2776 8.28741 15.3536 8.29852 15.5057 8.32076L20.397 9.03569C20.9121 9.11098 21.1696 9.14862 21.2888 9.27442C21.3925 9.38388 21.4412 9.53428 21.4215 9.68376C21.3988 9.85556 21.2124 10.0372 20.8395 10.4004L17.3014 13.8464C17.1912 13.9538 17.136 14.0075 17.1004 14.0714C17.0689 14.128 17.0487 14.1902 17.0409 14.2545C17.0321 14.3271 17.0451 14.403 17.0711 14.5547L17.906 19.4221C17.994 19.9355 18.038 20.1922 17.9553 20.3445C17.8833 20.477 17.7554 20.57 17.6071 20.5975C17.4366 20.6291 17.2061 20.5078 16.7451 20.2654L12.3724 17.9658C12.2361 17.8942 12.168 17.8583 12.0962 17.8443C12.0327 17.8318 11.9673 17.8318 11.9038 17.8443C11.832 17.8583 11.7639 17.8942 11.6277 17.9658L7.25492 20.2654C6.79392 20.5078 6.56341 20.6291 6.39297 20.5975C6.24468 20.57 6.11672 20.477 6.04474 20.3445C5.962 20.1922 6.00603 19.9355 6.09407 19.4221L6.92889 14.5547C6.95491 14.403 6.96793 14.3271 6.95912 14.2545C6.95132 14.1902 6.93111 14.128 6.89961 14.0714C6.86402 14.0075 6.80888 13.9538 6.69859 13.8464L3.16056 10.4004C2.78766 10.0372 2.60121 9.85556 2.57853 9.68376C2.55879 9.53428 2.60755 9.38388 2.71125 9.27442C2.83044 9.14862 3.08797 9.11098 3.60304 9.03569L8.49431 8.32076C8.64642 8.29852 8.72248 8.28741 8.78872 8.25661C8.84736 8.22933 8.90016 8.19094 8.94419 8.14356C8.99391 8.09004 9.02793 8.02112 9.09597 7.88327L11.2827 3.4533Z" fill="#FFA928"/>
<path d="M35.2827 3.4533C35.5131 2.98636 35.6284 2.75289 35.7848 2.6783C35.9209 2.6134 36.0791 2.6134 36.2152 2.6783C36.3717 2.75289 36.4869 2.98636 36.7174 3.4533L38.9041 7.88327C38.9721 8.02112 39.0061 8.09004 39.0558 8.14356C39.0999 8.19094 39.1527 8.22933 39.2113 8.25661C39.2776 8.28741 39.3536 8.29852 39.5057 8.32076L44.397 9.03569C44.9121 9.11098 45.1696 9.14862 45.2888 9.27442C45.3925 9.38388 45.4412 9.53428 45.4215 9.68376C45.3988 9.85556 45.2124 10.0372 44.8395 10.4004L41.3014 13.8464C41.1912 13.9538 41.136 14.0075 41.1004 14.0714C41.0689 14.128 41.0487 14.1902 41.0409 14.2545C41.0321 14.3271 41.0451 14.403 41.0711 14.5547L41.906 19.4221C41.994 19.9355 42.038 20.1922 41.9553 20.3445C41.8833 20.477 41.7554 20.57 41.6071 20.5975C41.4366 20.6291 41.2061 20.5078 40.7451 20.2654L36.3724 17.9658C36.2361 17.8942 36.168 17.8583 36.0962 17.8443C36.0327 17.8318 35.9673 17.8318 35.9038 17.8443C35.832 17.8583 35.7639 17.8942 35.6277 17.9658L31.2549 20.2654C30.7939 20.5078 30.5634 20.6291 30.393 20.5975C30.2447 20.57 30.1167 20.477 30.0447 20.3445C29.962 20.1922 30.006 19.9355 30.0941 19.4221L30.9289 14.5547C30.9549 14.403 30.9679 14.3271 30.9591 14.2545C30.9513 14.1902 30.9311 14.128 30.8996 14.0714C30.864 14.0075 30.8089 13.9538 30.6986 13.8464L27.1606 10.4004C26.7877 10.0372 26.6012 9.85556 26.5785 9.68376C26.5588 9.53428 26.6076 9.38388 26.7113 9.27442C26.8304 9.14862 27.088 9.11098 27.603 9.03569L32.4943 8.32076C32.6464 8.29852 32.7225 8.28741 32.7887 8.25661C32.8474 8.22933 32.9002 8.19094 32.9442 8.14356C32.9939 8.09004 33.0279 8.02112 33.096 7.88327L35.2827 3.4533Z" fill="#FFA928"/>
<path d="M59.2827 3.4533C59.5131 2.98636 59.6284 2.75289 59.7848 2.6783C59.9209 2.6134 60.0791 2.6134 60.2152 2.6783C60.3717 2.75289 60.4869 2.98636 60.7174 3.4533L62.9041 7.88327C62.9721 8.02112 63.0061 8.09004 63.0558 8.14356C63.0999 8.19094 63.1527 8.22933 63.2113 8.25661C63.2776 8.28741 63.3536 8.29852 63.5057 8.32076L68.397 9.03569C68.9121 9.11098 69.1696 9.14862 69.2888 9.27442C69.3925 9.38388 69.4412 9.53428 69.4215 9.68376C69.3988 9.85556 69.2124 10.0372 68.8395 10.4004L65.3014 13.8464C65.1912 13.9538 65.136 14.0075 65.1004 14.0714C65.0689 14.128 65.0487 14.1902 65.0409 14.2545C65.0321 14.3271 65.0451 14.403 65.0711 14.5547L65.906 19.4221C65.994 19.9355 66.038 20.1922 65.9553 20.3445C65.8833 20.477 65.7554 20.57 65.6071 20.5975C65.4366 20.6291 65.2061 20.5078 64.7451 20.2654L60.3724 17.9658C60.2361 17.8942 60.168 17.8583 60.0962 17.8443C60.0327 17.8318 59.9673 17.8318 59.9038 17.8443C59.832 17.8583 59.7639 17.8942 59.6277 17.9658L55.2549 20.2654C54.7939 20.5078 54.5634 20.6291 54.393 20.5975C54.2447 20.57 54.1167 20.477 54.0447 20.3445C53.962 20.1922 54.006 19.9355 54.0941 19.4221L54.9289 14.5547C54.9549 14.403 54.9679 14.3271 54.9591 14.2545C54.9513 14.1902 54.9311 14.128 54.8996 14.0714C54.864 14.0075 54.8089 13.9538 54.6986 13.8464L51.1606 10.4004C50.7877 10.0372 50.6012 9.85556 50.5785 9.68376C50.5588 9.53428 50.6076 9.38388 50.7113 9.27442C50.8304 9.14862 51.088 9.11098 51.603 9.03569L56.4943 8.32076C56.6464 8.29852 56.7225 8.28741 56.7887 8.25661C56.8474 8.22933 56.9002 8.19094 56.9442 8.14356C56.9939 8.09004 57.0279 8.02112 57.096 7.88327L59.2827 3.4533Z" fill="#797979" fill-opacity="0.3"/>
<path d="M83.2827 3.4533C83.5131 2.98636 83.6284 2.75289 83.7848 2.6783C83.9209 2.6134 84.0791 2.6134 84.2152 2.6783C84.3717 2.75289 84.4869 2.98636 84.7174 3.4533L86.9041 7.88327C86.9721 8.02112 87.0061 8.09004 87.0558 8.14356C87.0999 8.19094 87.1527 8.22933 87.2113 8.25661C87.2776 8.28741 87.3536 8.29852 87.5057 8.32076L92.397 9.03569C92.9121 9.11098 93.1696 9.14862 93.2888 9.27442C93.3925 9.38388 93.4412 9.53428 93.4215 9.68376C93.3988 9.85556 93.2124 10.0372 92.8395 10.4004L89.3014 13.8464C89.1912 13.9538 89.136 14.0075 89.1004 14.0714C89.0689 14.128 89.0487 14.1902 89.0409 14.2545C89.0321 14.3271 89.0451 14.403 89.0711 14.5547L89.906 19.4221C89.994 19.9355 90.038 20.1922 89.9553 20.3445C89.8833 20.477 89.7554 20.57 89.6071 20.5975C89.4366 20.6291 89.2061 20.5078 88.7451 20.2654L84.3724 17.9658C84.2361 17.8942 84.168 17.8583 84.0962 17.8443C84.0327 17.8318 83.9673 17.8318 83.9038 17.8443C83.832 17.8583 83.7639 17.8942 83.6277 17.9658L79.2549 20.2654C78.7939 20.5078 78.5634 20.6291 78.393 20.5975C78.2447 20.57 78.1167 20.477 78.0447 20.3445C77.962 20.1922 78.006 19.9355 78.0941 19.4221L78.9289 14.5547C78.9549 14.403 78.9679 14.3271 78.9591 14.2545C78.9513 14.1902 78.9311 14.128 78.8996 14.0714C78.864 14.0075 78.8089 13.9538 78.6986 13.8464L75.1606 10.4004C74.7877 10.0372 74.6012 9.85556 74.5785 9.68376C74.5588 9.53428 74.6076 9.38388 74.7113 9.27442C74.8304 9.14862 75.088 9.11098 75.603 9.03569L80.4943 8.32076C80.6464 8.29852 80.7225 8.28741 80.7887 8.25661C80.8474 8.22933 80.9002 8.19094 80.9442 8.14356C80.9939 8.09004 81.0279 8.02112 81.096 7.88327L83.2827 3.4533Z" fill="#797979" fill-opacity="0.3"/>
<path d="M107.283 3.4533C107.513 2.98636 107.628 2.75289 107.785 2.6783C107.921 2.6134 108.079 2.6134 108.215 2.6783C108.372 2.75289 108.487 2.98636 108.717 3.4533L110.904 7.88327C110.972 8.02112 111.006 8.09004 111.056 8.14356C111.1 8.19094 111.153 8.22933 111.211 8.25661C111.278 8.28741 111.354 8.29852 111.506 8.32076L116.397 9.03569C116.912 9.11098 117.17 9.14862 117.289 9.27442C117.392 9.38388 117.441 9.53428 117.422 9.68376C117.399 9.85556 117.212 10.0372 116.839 10.4004L113.301 13.8464C113.191 13.9538 113.136 14.0075 113.1 14.0714C113.069 14.128 113.049 14.1902 113.041 14.2545C113.032 14.3271 113.045 14.403 113.071 14.5547L113.906 19.4221C113.994 19.9355 114.038 20.1922 113.955 20.3445C113.883 20.477 113.755 20.57 113.607 20.5975C113.437 20.6291 113.206 20.5078 112.745 20.2654L108.372 17.9658C108.236 17.8942 108.168 17.8583 108.096 17.8443C108.033 17.8318 107.967 17.8318 107.904 17.8443C107.832 17.8583 107.764 17.8942 107.628 17.9658L103.255 20.2654C102.794 20.5078 102.563 20.6291 102.393 20.5975C102.245 20.57 102.117 20.477 102.045 20.3445C101.962 20.1922 102.006 19.9355 102.094 19.4221L102.929 14.5547C102.955 14.403 102.968 14.3271 102.959 14.2545C102.951 14.1902 102.931 14.128 102.9 14.0714C102.864 14.0075 102.809 13.9538 102.699 13.8464L99.1606 10.4004C98.7877 10.0372 98.6012 9.85556 98.5785 9.68376C98.5588 9.53428 98.6076 9.38388 98.7113 9.27442C98.8304 9.14862 99.088 9.11098 99.603 9.03569L104.494 8.32076C104.646 8.29852 104.722 8.28741 104.789 8.25661C104.847 8.22933 104.9 8.19094 104.944 8.14356C104.994 8.09004 105.028 8.02112 105.096 7.88327L107.283 3.4533Z" fill="#797979" fill-opacity="0.3"/>
</svg>
