<svg width="24" height="25" viewBox="0 0 24 25" fill="none" xmlns="http://www.w3.org/2000/svg">
<g clip-path="url(#clip0_137_216)">
<path d="M11.8003 11.4C9.53031 10.81 8.80031 10.2 8.80031 9.25C8.80031 8.16 9.81031 7.4 11.5003 7.4C13.2803 7.4 13.9403 8.25 14.0003 9.5H16.2103C16.1403 7.78 15.0903 6.2 13.0003 5.69V3.5H10.0003V5.66C8.06031 6.08 6.50031 7.34 6.50031 9.27C6.50031 11.58 8.41031 12.73 11.2003 13.4C13.7003 14 14.2003 14.88 14.2003 15.81C14.2003 16.5 13.7103 17.6 11.5003 17.6C9.44031 17.6 8.63031 16.68 8.52031 15.5H6.32031C6.44031 17.69 8.08031 18.92 10.0003 19.33V21.5H13.0003V19.35C14.9503 18.98 16.5003 17.85 16.5003 15.8C16.5003 12.96 14.0703 11.99 11.8003 11.4Z" fill="black"/>
</g>
<defs>
<clipPath id="clip0_137_216">
<rect width="24" height="24" fill="white" transform="translate(0 0.5)"/>
</clipPath>
</defs>
</svg>
