<svg width="25" height="24" viewBox="0 0 25 24" fill="none" xmlns="http://www.w3.org/2000/svg">
<g clip-path="url(#clip0_120_279)">
<path d="M24.4888 12.2247C24.4888 11.2414 24.4071 10.5239 24.2304 9.77979H12.7393V14.2178H19.4843C19.3484 15.3207 18.614 16.9816 16.9821 18.0977L16.9592 18.2463L20.5925 20.9965L20.8442 21.021C23.156 18.9349 24.4888 15.8654 24.4888 12.2247Z" fill="#4285F4"/>
<path d="M12.7393 23.9173C16.0438 23.9173 18.8179 22.8543 20.8442 21.0206L16.9821 18.0973C15.9486 18.8016 14.5615 19.2932 12.7393 19.2932C9.50273 19.2932 6.75576 17.2071 5.77654 14.3237L5.63301 14.3356L1.85507 17.1925L1.80566 17.3267C3.81829 21.2332 7.95238 23.9173 12.7393 23.9173Z" fill="#34A853"/>
<path d="M5.77634 14.3238C5.51797 13.5797 5.36844 12.7824 5.36844 11.9586C5.36844 11.1347 5.51797 10.3375 5.76275 9.59342L5.75591 9.43494L1.93062 6.53223L1.80547 6.59039C0.975969 8.21149 0.5 10.0319 0.5 11.9586C0.5 13.8853 0.975969 15.7056 1.80547 17.3267L5.77634 14.3238Z" fill="#FBBC05"/>
<path d="M12.7393 4.62403C15.0374 4.62403 16.5877 5.59402 17.4717 6.40461L20.9258 3.10928C18.8044 1.1826 16.0438 0 12.7393 0C7.95238 0 3.81829 2.68406 1.80566 6.59056L5.76295 9.59359C6.75576 6.7102 9.50273 4.62403 12.7393 4.62403Z" fill="#EB4335"/>
</g>
<defs>
<clipPath id="clip0_120_279">
<rect width="24" height="24" fill="white" transform="translate(0.5)"/>
</clipPath>
</defs>
</svg>
