<svg width="72" height="72" viewBox="0 0 72 72" fill="none" xmlns="http://www.w3.org/2000/svg">
<path d="M36.0005 57.0002C35.9988 53.4572 36.8942 49.9714 38.6032 46.8678C40.3123 43.7642 42.7793 41.1438 45.7743 39.251C48.7693 37.3581 52.1949 36.2544 55.7316 36.0427C59.2683 35.831 62.801 36.5182 66.0005 38.0402V18.0002C66.0005 14.7002 63.3005 12.0002 60.0005 12.0002H12.0005C8.70049 12.0002 6.00049 14.7002 6.00049 18.0002V54.0002C6.00049 57.3002 8.70049 60.0002 12.0005 60.0002H36.2405C36.0905 59.0102 36.0005 58.0202 36.0005 57.0002ZM12.0005 18.0002L36.0005 33.0002L60.0005 18.0002V24.0002L36.0005 39.0002L12.0005 24.0002V18.0002ZM52.0205 66.0002L41.4005 55.3802L45.6305 51.1502L51.9905 57.5102L64.7105 44.7902L69.0005 49.0202L52.0205 66.0002Z" fill="black"/>
</svg>
